<svg width="40" height="40" viewBox="0 0 40 40" fill="none" xmlns="http://www.w3.org/2000/svg">
<path d="M33.4999 12.8993C33.7166 12.1993 33.4999 11.666 32.4666 11.666H29.0999C28.2333 11.666 27.8499 12.116 27.6333 12.616C27.6333 12.616 25.9166 16.7993 23.4833 19.5327C22.6833 20.316 22.3333 20.566 21.8999 20.566C21.6833 20.566 21.3333 20.316 21.3333 19.5993V12.8993C21.3333 12.0493 21.1333 11.666 20.4166 11.666H15.0999C14.5666 11.666 14.2499 12.066 14.2499 12.4493C14.2499 13.2493 15.4999 13.4493 15.5833 15.7327V20.6993C15.5833 21.7993 15.3833 21.9993 14.9666 21.9993C13.8333 21.9993 11.0333 17.7827 9.38325 12.9827C9.04992 12.0493 8.73325 11.666 7.86659 11.666H4.48325C3.53325 11.666 3.33325 12.116 3.33325 12.616C3.33325 13.516 4.48325 17.9493 8.66659 23.816C11.4499 27.8327 15.3833 29.9993 18.9666 29.9993C21.1166 29.9993 21.3833 29.516 21.3833 28.6827V25.6494C21.3833 24.6994 21.5833 24.4993 22.2666 24.4993C22.7666 24.4993 23.6166 24.7493 25.6166 26.666C27.9166 28.966 28.2833 29.9993 29.5833 29.9993H32.9499C33.9166 29.9993 34.3999 29.516 34.1333 28.566C33.8333 27.616 32.7333 26.2327 31.2833 24.5993C30.4999 23.6827 29.3166 22.6827 28.9499 22.166C28.4499 21.5327 28.5999 21.2493 28.9499 20.666C28.9499 20.666 33.0666 14.8827 33.4999 12.8993Z" fill="#FCFCFC"/>
</svg>
